<svg viewBox="0 0 86 16" fill="none" xmlns="http://www.w3.org/2000/svg">
    <path d="M49.5738 2.64973H46.7567L46.4016 4.00164L46.0466 2.64973H45.3983C44.8734 2.64973 44.4567 2.2403 44.4567 1.70726C44.4567 1.17423 44.8657 0.764792 45.3983 0.764792H49.5661C50.0909 0.764792 50.5077 1.17423 50.5077 1.70726C50.5077 2.2403 50.0986 2.64973 49.5738 2.64973ZM49.5738 0H45.406C44.4644 0 43.7003 0.764792 43.7003 1.70726C43.7003 2.64973 44.4644 3.41452 45.406 3.41452H45.5835L46.4094 5.53122L47.2352 3.41452H49.6433C50.5849 3.41452 51.349 2.64973 51.349 1.70726C51.2718 0.764792 50.5077 0 49.5738 0ZM80.7012 2.1785H83.171V5.05999H85.17V6.70545H83.171V10.174C83.171 10.7612 83.3485 10.9388 83.9968 10.9388C84.4059 10.9388 84.8227 10.9388 85.17 10.877V12.5225C84.6992 12.5843 83.8193 12.6384 83.2327 12.6384C80.8864 12.6384 80.7089 11.7577 80.7089 10.4058V6.64365H79.1807V5.05999H80.7089L80.7012 2.1785ZM16.7407 6.75952C15.6216 6.75952 14.6259 7.34664 14.6259 8.93802V12.5225H12.1561V5.05999H14.5024V6.11833C14.9732 5.46942 16.0847 4.82823 17.5588 4.82823C18.8478 4.82823 20.731 5.29947 20.731 7.53204V12.5225H18.2612V8.65992C18.2689 8.65992 18.2458 6.75952 16.7407 6.75952ZM26.8438 10.6994C27.9012 10.6994 29.1901 10.344 29.1901 8.64447C29.1901 6.94493 27.9012 6.58957 26.8438 6.58957C25.7864 6.58957 24.4975 6.94493 24.4975 8.64447C24.4975 10.344 25.7864 10.6994 26.8438 10.6994ZM29.3059 5.05999H31.6522V11.9354C31.6522 14.5233 30.0082 15.5199 26.8978 15.5199C25.0763 15.5199 22.5525 15.2881 22.3132 13.0478H24.8988C25.0763 13.6349 25.5471 13.9903 26.9518 13.9903C28.1868 13.9903 29.1824 13.6967 29.1824 11.8736V11.2865C28.48 12.0513 27.4227 12.4066 26.1878 12.4066C23.2548 12.4066 21.9582 10.5835 21.9582 8.70627C21.9582 6.65137 23.2471 5.00591 26.4193 5.00591C27.4767 5.00591 28.5958 5.29947 29.2364 6.12606V5.05999H29.3059ZM33.1264 2.41025H35.5962V4.11752H33.1264V2.41025ZM33.1264 5.05999H35.5962V12.5225H33.1264V5.05999ZM72.3578 10.2281C72.4736 10.877 72.8827 11.2865 74.1793 11.2865C75.2985 11.2865 75.9391 10.9929 75.9391 10.4599C75.9391 10.0504 75.7075 9.87277 74.5266 9.69509L72.2961 9.40153C70.7139 9.16978 69.8263 8.69854 69.8263 7.28484C69.8263 5.28402 71.8793 4.7587 73.8783 4.7587C77.282 4.7587 78.1079 5.87885 78.2854 7.28484H75.584C75.4683 6.52004 74.6424 6.28829 73.9401 6.28829C73.2917 6.28829 72.3578 6.35009 72.3578 7.05308C72.3578 7.40844 72.5354 7.64019 73.5927 7.75607L75.2985 7.93375C77.7683 8.1655 78.5864 8.9303 78.5864 10.2281C78.5864 12.4607 76.1166 12.7543 74.0018 12.7543C71.1847 12.7543 69.7723 11.9277 69.5947 10.1663H72.3578V10.2281ZM43.9936 7.99555C43.9936 7.58612 43.4687 6.28829 41.7013 6.28829C39.764 6.28829 39.3549 7.75607 39.3549 7.93375H43.9936V7.99555ZM46.4016 10.2899C45.6993 12.0513 43.9936 12.8161 41.763 12.8161C38.8301 12.8161 36.8311 11.6418 36.8311 8.82214C36.8311 6.00246 38.8301 4.82823 41.763 4.82823C44.9969 4.82823 46.5174 6.47369 46.5174 9.29338V9.52513H39.3549C39.3549 10.2281 40.0573 11.3483 41.763 11.3483C42.7587 11.3483 43.4687 10.9929 43.8161 10.3517H46.4016V10.2899ZM49.8671 10.2281C49.9829 10.877 50.3919 11.2865 51.6886 11.2865C52.8077 11.2865 53.4483 10.9929 53.4483 10.4599C53.4483 10.0504 53.2168 9.87277 52.0359 9.69509L49.8053 9.40153C48.2231 9.16978 47.3355 8.69854 47.3355 7.28484C47.3355 5.28402 49.3886 4.7587 51.3876 4.7587C54.7913 4.7587 55.6171 5.87885 55.7947 7.28484H53.0933C52.9775 6.52004 52.1517 6.28829 51.4493 6.28829C50.801 6.28829 49.8671 6.35009 49.8671 7.05308C49.8671 7.40844 50.0446 7.64019 51.102 7.75607L52.8617 7.98783C55.3316 8.21958 56.1497 8.98437 56.1497 10.2822C56.1497 12.5148 53.6799 12.8083 51.5651 12.8083C48.748 12.8083 47.3355 11.9817 47.158 10.2204C47.1657 10.2281 49.8671 10.2281 49.8671 10.2281ZM65.8977 5.05999H68.3675V12.5225H65.8977V5.05999ZM65.8977 2.41025H68.3675V4.11752H65.8977V2.41025ZM61.5524 1.29783H64.0222V12.5843H61.5524V1.29783ZM5.9893 4.76643L4.4611 8.70627H7.57152L5.9893 4.76643ZM8.2816 10.4676H3.697L2.87888 12.5225H0L4.34533 2.64973H7.57924L11.9246 12.5843H9.0457L8.2816 10.4676Z"></path>
</svg>